<svg xmlns="http://www.w3.org/2000/svg" viewBox="0 0 214.74 173.76"><defs><style>.cls-1{fill:#dee44c;}.cls-2{fill:#7e6e60;}</style></defs><g id="Layer_2" data-name="Layer 2"><g id="People_Avatar" data-name="People Avatar"><path class="cls-1" d="M80.42,146.47a95.58,95.58,0,0,1,4.41,27.29H134.3c-2.18-9.65-7.21-26.63-15.12-37.19-2.4,8.55-6.53,18.28-12.3,23.67-8.17-4-16.92-10-21.81-14.93A34.62,34.62,0,0,1,80.42,146.47Z"/><path class="cls-2" d="M68.18,134a31.55,31.55,0,0,0,.92,4c1.24,3.56,4.85,7,11.32,8.54-3-3.4-2.7-7.55-.5-12.44,2.32-3.82,3.19-10.86,3.24-15.18a13.59,13.59,0,0,0-2.86-9,37.28,37.28,0,0,1-4.86-9.7c-2.87.71-3.88-.51-4.37-2.88s-.11-6.08.23-9.4a19.36,19.36,0,0,1-3.93,1.63,42.26,42.26,0,0,0-.22,13.3c.58,5.27,1,8.38,1.37,11.86s-.25,7.55-2,10-4.81,4.64-9.29,7.55a18.13,18.13,0,0,1,8.93.84c.24-2.42,2.79-8.68,4.35-11.61C69.74,124.72,67.89,130.17,68.18,134Z"/><path class="cls-2" d="M126.15,99.91a24.45,24.45,0,0,1-5,11.45,66.44,66.44,0,0,1-6.36,6.58c-.41,3.81-.5,5.31-.05,8,.57,3.47,1.27,5.47,2.4,7l3.29,0c1.66,1.16,2.6,3.34,2.88,6,1.35-3.51,1.46-6.44.14-11.41s-1.94-7.06-1.19-10.4c1.49,4.73,2.84,7.63,3.51,10.45a22.68,22.68,0,0,1,.77,6,27.09,27.09,0,0,0,6.22.17c1.63-4.12,2-6.43,1.69-9.54a27.38,27.38,0,0,0-2.74-9.38C129.85,110.73,126.65,104,126.15,99.91Z"/><path class="cls-2" d="M75.94,90.56a58.1,58.1,0,0,1-4-9.16,10,10,0,0,1-.25-7,87.87,87.87,0,0,1,3.24-11,34.79,34.79,0,0,1,7.29-12.28,31.17,31.17,0,0,1,12.39-8.24,24.22,24.22,0,0,1,10.84-1.38A8.3,8.3,0,0,1,110,43.12c2.29-1.28,4.81-.5,7.3.83s5.85,4.68,8.63,9.7a88.61,88.61,0,0,1,6.88,18c.87,4.15,1.58,7.26.71,8.34A52.23,52.23,0,0,0,129,85.84a112.11,112.11,0,0,0-1.41-14,49.3,49.3,0,0,1-7.76-8.42,27.43,27.43,0,0,1-4.52-12.15c-1.66,5.51-3.87,7.82-6.5,9.76a18.76,18.76,0,0,1-10.19,4,29.06,29.06,0,0,1-5.5.1c3.11-2.95,4.94-5.23,5.43-7a60.41,60.41,0,0,1-8.71,6.3,39.5,39.5,0,0,0,3.57-8.13,27.67,27.67,0,0,0-8,9A29.21,29.21,0,0,1,78,73.72,57.85,57.85,0,0,0,75.94,90.56Z"/><path d="M100.37,62a1.2,1.2,0,0,0,.24,2.37l.24,0c4.35-.89,9-4.55,11.58-9.1,2.07-3.66,2.57-7.47,1.42-10.73a1.2,1.2,0,0,0-2.27.8c.93,2.6.49,5.7-1.23,8.75C108.09,58.09,104.08,61.28,100.37,62Z"/><path d="M92.36,65a1.2,1.2,0,0,0,1.08.67,1.12,1.12,0,0,0,.53-.13,19.84,19.84,0,0,0,10.15-12.19,1.2,1.2,0,1,0-2.32-.62,17.61,17.61,0,0,1-8.9,10.66A1.21,1.21,0,0,0,92.36,65Z"/><path d="M86.13,65.87a21.23,21.23,0,0,1,7.73-8.46,1.2,1.2,0,0,0-1.31-2,23.58,23.58,0,0,0-8.5,9.27,21.59,21.59,0,0,1-6.6,7.72,1.33,1.33,0,0,0-.41.53c-1.32,3.36-2,8.71-1.87,14.31a1.2,1.2,0,0,0,1.2,1.17h0a1.2,1.2,0,0,0,1.17-1.23c-.14-5,.47-10,1.59-13A24,24,0,0,0,86.13,65.87Z"/><path d="M80.32,147.49a1.2,1.2,0,0,0-.17-2.4c-1.44.11-4.86-1.36-7.55-4.38-2.42-2.7-2.92-7.21-1.43-12.68A93.52,93.52,0,0,0,74.52,112a1.21,1.21,0,0,0-1.09-1.31,1.2,1.2,0,0,0-1.3,1.09,91.76,91.76,0,0,1-3.27,15.65c-1.72,6.29-1,11.59,2,14.92s6.94,5.19,9.22,5.19Z"/><path d="M117.2,135.43a1.21,1.21,0,0,0-1.5.8c-1.14,3.69-4.09,13.3-9.77,20.37-5-2.58-17.94-9.89-24.19-19.36a1.2,1.2,0,1,0-2,1.32c7,10.57,21.64,18.45,26,20.62a1.24,1.24,0,0,0,.53.12,1.19,1.19,0,0,0,.92-.42c6.39-7.5,9.62-18,10.83-21.95A1.2,1.2,0,0,0,117.2,135.43Z"/><path d="M207.11,86.16c-4.57-2.28-20.06-6.22-24.23-6.88a1.14,1.14,0,0,0-.68.09,14.21,14.21,0,0,0-2.67,1.57,1.16,1.16,0,0,0-.32-.08c-8.08-.69-23.75-3.6-26.34-4.15a19.47,19.47,0,0,1-6.94-3.25,37.08,37.08,0,0,1-8.09-9.36c-1.44-2.53-4.28-7.92-5.05-9.76-1-2.4-3.34-4-5-3.49-.22-.42-.44-.81-.64-1.13C122.65,42.59,118,39,113.24,39h-.11a1.2,1.2,0,0,0,0,2.4h.09c3.81,0,7.89,3.32,11.82,9.61,2.4,3.83,6.27,15.83,7,18.8.87,3.72,1.4,8.27.72,9.74a13.4,13.4,0,0,1-2,2.54l-.92,1c-.06-2.45-.5-6.42-.89-9.29l.52.34a1.17,1.17,0,0,0,.63.17,1.2,1.2,0,0,0,.63-2.22c-5.18-3.2-12.24-11.88-13.09-17.45a1.2,1.2,0,0,0-2.37.36c.8,5.28,5.94,12.35,10.94,16.69.55,3.33,1.43,10.71,1.21,12.67-.13,1.2-.26,2.28-.38,3.28a3.82,3.82,0,0,0-.11.57,1.07,1.07,0,0,0,0,.31c-.54,4.42-1,6.82-1.22,8.09-.1.47-.2.92-.3,1.34a1.37,1.37,0,0,0-.1.41h0a45.17,45.17,0,0,1-2.61,7.79c-1.15,2.75-3.3,5.16-5.6,7.6-2.7,2.85-6.53,6.13-12.23,6.13s-11.64-2.87-15.2-5.72a1.2,1.2,0,1,0-1.5,1.88c3.6,2.88,10.13,6.24,16.7,6.24a16.39,16.39,0,0,0,8.25-2.19c-.5,4.27.33,10.19,2.63,13.54a1.2,1.2,0,0,0,1.67.31,1.19,1.19,0,0,0,.31-1.67c-2.56-3.72-2.82-11.16-1.75-14.18a28.71,28.71,0,0,0,2.86-2.7c2.46-2.6,4.77-5.19,6.08-8.32.42-1,.8-1.95,1.17-2.94a59.43,59.43,0,0,0,4,9.72c.36.73.68,1.39.93,2,1.91,4.2,3.4,10.22,1.87,14.55a1.18,1.18,0,0,0,.73,1.53,1.09,1.09,0,0,0,.4.07,1.2,1.2,0,0,0,1.13-.8c2.23-6.29-.92-14.1-1.94-16.35q-.41-.87-1-2c-1.86-3.84-4.65-9.61-4.5-14.14.11-.49.23-1,.35-1.57s.29-1.49.44-2.43a28.19,28.19,0,0,0,8.59,2.2,38.3,38.3,0,0,0,7-.61c1.59-.24,3.24-.47,4.75-.59,3.64-.28,7,.49,10.89,1.38l1.56.36a74.87,74.87,0,0,1,10.92,3.16.61.61,0,0,0,.18,0c.3,1.63,1.81,2.19,3.25,2.51a8.81,8.81,0,0,1,3.52,1.28,1.25,1.25,0,0,1,.6,1c0,.47-.36,1.81-3.44,3.93s-8.06,7.42-12.18,11.89c-2.51,2.72-11.27,9-16.63,10.35a1.2,1.2,0,1,0,.59,2.32c6.1-1.57,15.12-8.13,17.8-11.05s8.67-9.39,11.78-11.54,4.44-4,4.48-5.85a3.61,3.61,0,0,0-1.56-3,10.69,10.69,0,0,0-4.44-1.7c-.83-.19-1.38-.42-1.41-.6-.9-5.49,1.09-15,8.14-18.47,4.45.79,19,4.51,23.19,6.6,4.4,2.18,6.78,6.84,6.21,12.16-.54,5-4,11.16-10.48,18.87-1.25,1.48-3.57,4.15-6.25,7.23-6,6.87-14.12,16.27-19.23,22.56l-1.44,1.77c-3.36,4.13-8,9.78-11.25,14.11a1.2,1.2,0,0,0,.22,1.68,1.25,1.25,0,0,0,.73.24,1.21,1.21,0,0,0,1-.47c3.26-4.29,7.85-9.93,11.2-14.05l1.44-1.77c5.09-6.26,13.24-15.64,19.19-22.49,2.79-3.22,5-5.77,6.26-7.26,6.84-8.09,10.45-14.68,11-20.16C215.32,94.38,212.44,88.8,207.11,86.16Zm-33.47,3A24.72,24.72,0,0,0,172.13,98a78.85,78.85,0,0,0-10.34-2.92l-1.55-.36c-4.09-.93-7.61-1.74-11.62-1.43-1.58.12-3.27.36-4.91.6a35.63,35.63,0,0,1-6.53.59,25.32,25.32,0,0,1-8.37-2.29c.17-1.2.35-2.55.53-4,.38-1.44,1.83-3,3.13-4.45a13.83,13.83,0,0,0,2.45-3.16c1.28-2.77-.11-9.34-.56-11.29a130.28,130.28,0,0,0-5.48-15.95,4,4,0,0,1,1.7,2c.88,2.13,3.89,7.78,5.17,10a39.19,39.19,0,0,0,8.74,10.09,21.86,21.86,0,0,0,7.89,3.68c2.43.51,16.31,3.1,24.83,4A19.57,19.57,0,0,0,173.64,89.15Z"/><path d="M139.41,132.23a46.61,46.61,0,0,1-11.75.52h-.12a32.76,32.76,0,0,0-2.29-10.31A17.12,17.12,0,0,1,124,117.5a1.19,1.19,0,0,0-1.15-1.24,1.2,1.2,0,0,0-1.25,1.15,17.91,17.91,0,0,0,1.4,5.81c1.48,4.24,3.31,9.52,1.25,14.95a1.2,1.2,0,0,0,.7,1.54,1.09,1.09,0,0,0,.43.08,1.19,1.19,0,0,0,1.12-.77,16.6,16.6,0,0,0,.94-3.88h0a49.47,49.47,0,0,0,12.35-.54c2.4-.38,3.18,0,3.42.32a1.23,1.23,0,0,0,.9.4,1.19,1.19,0,0,0,.9-2C143.47,131.59,140.41,132.07,139.41,132.23Z"/><path d="M58.72,131.35a13.12,13.12,0,0,1-5-.29,1.2,1.2,0,1,0-.79,2.26,14.91,14.91,0,0,0,5.91.42c2-.13,3.67-.24,4.56.59a1.2,1.2,0,0,0,.81.32,1.18,1.18,0,0,0,.88-.39,1.19,1.19,0,0,0-.06-1.69C63.43,131,61,131.2,58.72,131.35Z"/><path d="M115.46,79.86a2.81,2.81,0,1,0,2.8-2.8A2.81,2.81,0,0,0,115.46,79.86Z"/><path d="M94.26,75.25a2.8,2.8,0,1,0,2.8,2.8A2.8,2.8,0,0,0,94.26,75.25Z"/><path d="M103.17,97.05a6.82,6.82,0,0,0-1.69,4c-.27,3.3,1.68,6.17,4.35,6.39h.33c2.53,0,4.74-2.44,5-5.61a6.77,6.77,0,0,0-1-4.26,4.26,4.26,0,0,0-7-.57Zm3.5.24a2.66,2.66,0,0,1,2,1.31,5,5,0,0,1,.72,3.14c-.19,2.31-1.71,4.08-3.39,3.94s-2.89-2.13-2.7-4.44a5,5,0,0,1,1.21-3,2.78,2.78,0,0,1,2-1Z"/><path d="M99.76,68.47a.89.89,0,0,0-.63-1.1c-3.26-.89-9.12.36-11.62,2.49a.9.9,0,0,0,.59,1.58.92.92,0,0,0,.58-.21c2.06-1.75,7.28-2.86,10-2.13A.89.89,0,0,0,99.76,68.47Z"/><path d="M122.38,74a.91.91,0,0,0,.7.34.94.94,0,0,0,.57-.2.91.91,0,0,0,.13-1.27,11.88,11.88,0,0,0-9.06-4.32.9.9,0,0,0,0,1.8A10.05,10.05,0,0,1,122.38,74Z"/><path d="M108.37,90.12a1,1,0,0,0,.24,0,.9.9,0,0,0,.63-1.11,37.05,37.05,0,0,1-.77-6.79.9.9,0,1,0-1.8,0,38.41,38.41,0,0,0,.83,7.27A.9.9,0,0,0,108.37,90.12Z"/><path d="M26.23,151.11c-.85-1.53-1.71-3.07-2.55-4.6C19.4,138.7,13.33,127,9,118.56c-5.06-9.81-7.17-16.73-6.46-21.15s3.26-6.89,8.31-10.29c3.56-2.38,8.42-4.25,14.85-5.7,2,.47,5.76,3.32,7.81,6.52C35,90.3,37,93.72,37,96.7a29.46,29.46,0,0,1-2.43,2.16,26.68,26.68,0,0,0-2,1.8,5.11,5.11,0,0,0-.79,5.72,32.3,32.3,0,0,0,3.38,4.86,49.9,49.9,0,0,1,5,7.25c2.74,5.48,6.52,12.47,9,14.61a1.2,1.2,0,0,0,1.57-1.82c-1.67-1.44-4.74-6.5-8.42-13.87A51.47,51.47,0,0,0,37,109.77a32,32,0,0,1-3.1-4.4,2.78,2.78,0,0,1,.33-3c.45-.46,1.13-1,1.85-1.62a26.32,26.32,0,0,0,3-2.75,1.21,1.21,0,0,0,.29-.72,8,8,0,0,0,0-.85,25.74,25.74,0,0,1,6.5-4.22c3.27-1.52,6.25-2.74,9.54-2.3.88.12,1.73.26,2.55.4a22.54,22.54,0,0,0,7.62.39c-.79,4.44-.11,11.38.42,15.41.09.71.2,1.48.31,2.27a55.69,55.69,0,0,1,.84,9.52,12.22,12.22,0,0,1-6.44,10.28,1.21,1.21,0,0,0-.42,1.65,1.22,1.22,0,0,0,1,.58,1.26,1.26,0,0,0,.62-.17A14.63,14.63,0,0,0,69.57,118a56.19,56.19,0,0,0-.85-10c-.11-.79-.22-1.54-.31-2.25-.94-7.21-1-12.91-.2-15.72a11.21,11.21,0,0,0,1.57-.66,28,28,0,0,0,0,8,4.82,4.82,0,0,0,2,3.36,3.36,3.36,0,0,0,1.65.4,5,5,0,0,0,1.33-.19,25.15,25.15,0,0,0,2.66,6.26c.5.85,1,1.69,1.58,2.51a18,18,0,0,1,2.43,4.51,30.2,30.2,0,0,1,.11,10.55,25.72,25.72,0,0,1-3.24,9.54,1.2,1.2,0,0,0,1,1.84,1.22,1.22,0,0,0,1-.55,28,28,0,0,0,3.59-10.49,32.48,32.48,0,0,0-.15-11.47A19.41,19.41,0,0,0,81,108.38c-.51-.79-1.05-1.61-1.51-2.41a18.92,18.92,0,0,1-3-9.41,1.18,1.18,0,0,0-1.23-1.16,1.2,1.2,0,0,0-1.17,1.23c0,.66.08,1.3.16,1.93a1.92,1.92,0,0,1-1.37,0c-.36-.19-.65-.79-.87-1.77a29.43,29.43,0,0,1,.33-8.93,1.05,1.05,0,0,0,0-.24l1-.78.39-.29.05,0,.09-.08.07-.09a.36.36,0,0,0,.07-.1l.06-.1,0-.1,0-.11,0-.11s0-.08,0-.12v-.23s0-.07,0-.11l0-.12a.42.42,0,0,0,0-.1.61.61,0,0,0-.05-.12l0,0c-1.2-2-2.58-6.8-2.32-8.93a34.3,34.3,0,0,0,.76-3.42c.13-.68.25-1.33.39-1.92.65-2.77,2.9-11,5.49-15.87A32.61,32.61,0,0,1,90.44,42.63c5.54-3.42,13.38-3.8,17.75-2.2a1.2,1.2,0,1,0,.83-2.25c-5.7-2.09-14.23-1-19.84,2.41a39.82,39.82,0,0,0-6.47,4.94c-1.17-1.09-2.09-.84-3.43-.35a7.83,7.83,0,0,0-3.12,2,1.1,1.1,0,0,0-.6-.12c-1.62.11-5.83,1.31-6.64,3.15l-.44,1c-1.59,3.51-3.12,6.93-3.54,8.19l-.18.57a16.54,16.54,0,0,1-2.39,5A17.63,17.63,0,0,1,57.12,70c-1.72,1.25-5.36,2.36-8.58,3.34-1.51.46-2.94.9-4.11,1.33-2.28.83-6.57,2.11-10.35,3.23-2.31.69-4.48,1.34-6,1.83A8.08,8.08,0,0,0,25.86,79a1.36,1.36,0,0,0-.45,0c-6.85,1.52-12,3.52-15.9,6.11C4.79,88.31,1.1,91.2.17,97c-.81,5,1.31,12.2,6.68,22.63,4.35,8.45,10.44,20.17,14.73,28,.84,1.54,1.7,3.08,2.55,4.62,4.11,7.41,8.32,15,10.75,21.48h2.56C35,167,30.56,158.92,26.23,151.11Zm8.53-70.88C38.58,79.1,42.9,77.81,45.25,77c1.12-.41,2.51-.83,4-1.28,3.56-1.09,7.25-2.21,9.29-3.7a19.75,19.75,0,0,0,5.79-5.61A18.92,18.92,0,0,0,67,60.67l.18-.55c.44-1.31,2.54-6,3.44-8,.21-.45.36-.8.44-1a7.74,7.74,0,0,1,3.1-1.47C72.29,52.39,69,57,67.79,59.88a.9.9,0,0,0,.47,1.18.94.94,0,0,0,.36.08.88.88,0,0,0,.82-.54c.94-2.15,3.37-5.91,7.21-11.17l.2-.28a6.12,6.12,0,0,1,3-2.28c1-.36,1.19-.42,1.56-.08a31.63,31.63,0,0,0-5.07,7c-2.7,5.08-5,13.6-5.71,16.45-.15.65-.28,1.32-.41,2-.43,2.38-.89,4.83-2.5,6.91a1.2,1.2,0,0,0,1.89,1.47c.1-.12.17-.25.26-.37a25.2,25.2,0,0,0,1.7,5.06c-2.33,1.75-3.36,2.44-6.07,2.95a19.71,19.71,0,0,1-7.15-.33c-.84-.15-1.71-.29-2.63-.42-3.93-.52-7.38.89-10.87,2.5a30.93,30.93,0,0,0-6,3.63,27.06,27.06,0,0,0-3.41-7,22,22,0,0,0-4.84-5.19C31.9,81.08,33.3,80.67,34.76,80.23Z"/><path d="M81.9,149.3a1.2,1.2,0,0,0-1.51-.77,1.21,1.21,0,0,0-.77,1.52,78.43,78.43,0,0,1,3.53,23.71h2.4A81.28,81.28,0,0,0,81.9,149.3Z"/><path d="M124.33,142a1.2,1.2,0,1,0-2,1.34c3.58,5.35,9.1,21.31,11.1,30.41h2.45C133.94,164.74,128.39,148.08,124.33,142Z"/><path d="M152.37,148.94a1.2,1.2,0,0,0-2,1.33c3.66,5.49,8.6,15.88,11.56,23.49h2.57C161.52,165.94,156.24,154.75,152.37,148.94Z"/><path d="M80,30.53a3.33,3.33,0,0,1-1.91-.61,2.91,2.91,0,0,1-1.28-2.31,3.22,3.22,0,0,1,1-2.39,3.55,3.55,0,0,1,2.64-1.11,3.42,3.42,0,0,1,3.38,3.23c0,1.41-1,2.44-2.89,3.05A2.91,2.91,0,0,1,80,30.53Zm.38-4.62a1.88,1.88,0,0,0-1.3.57,1.49,1.49,0,0,0-.48,1.08,1.17,1.17,0,0,0,.53.89,1.47,1.47,0,0,0,1.25.23h0C82,28.15,82,27.53,82,27.33a1.62,1.62,0,0,0-1.61-1.42Z"/><path d="M77.11,22.92a1,1,0,0,1-.74-.33c-1.8-2-4.41-5-5.66-6.61h0c-.49-.64-1-1.24-1.45-1.82C67,11.31,65,8.84,64.34,5A4.45,4.45,0,0,1,66.14.44C67.07-.1,69-.62,71.33,2a18.31,18.31,0,0,1,3,5.53A80.79,80.79,0,0,1,78.1,21.75a1,1,0,0,1-.55,1.07A1.13,1.13,0,0,1,77.11,22.92Zm-4.82-8.17c.73.93,1.92,2.35,3.15,3.76A69,69,0,0,0,72.52,8.27a16.64,16.64,0,0,0-2.67-4.93c-.74-.82-1.81-1.69-2.69-1.18a2.56,2.56,0,0,0-.85,2.55c.54,3.28,2.29,5.45,4.51,8.19.47.59,1,1.2,1.47,1.85Z"/></g></g></svg>