<svg xmlns="http://www.w3.org/2000/svg" viewBox="0 0 172.64 163.47"><defs><style>.cls-1{fill:#dee44c;}.cls-2{fill:#595757;}</style></defs><g id="Layer_2" data-name="Layer 2"><g id="People_Avatar" data-name="People Avatar"><path class="cls-1" d="M143.52,162.61H2.18c.33-.77,2.87-6,3.51-7.08H58.82A34.94,34.94,0,0,0,63,160,71.57,71.57,0,0,0,75,155.53h65.58A75.81,75.81,0,0,1,143.52,162.61Z"/><path class="cls-1" d="M58,154.2H6.38c1.08-2.1,2.85-5.08,4.15-7.07H54.61A43.54,43.54,0,0,0,58,154.2Z"/><path class="cls-1" d="M140,154.2H77.58a92.85,92.85,0,0,0,9.74-7.07h48.9A57.37,57.37,0,0,1,140,154.2Z"/><path class="cls-1" d="M54.34,145.8h-43a72.42,72.42,0,0,1,5-7.08H53A35.52,35.52,0,0,0,54.34,145.8Z"/><path class="cls-1" d="M135.45,145.8H88.78a69.31,69.31,0,0,0,6.63-7.08h35A37.52,37.52,0,0,1,135.45,145.8Z"/><path class="cls-1" d="M52.86,137.39H17.33a40.72,40.72,0,0,1,7.33-7.08H53.52A30.24,30.24,0,0,0,52.86,137.39Z"/><path class="cls-1" d="M129.48,137.39h-33c1.78-2.46,3.5-5,4.71-7.08H123A43,43,0,0,0,129.48,137.39Z"/><path class="cls-1" d="M53.87,129h-27c3.87-2.35,9.55-3.62,13.35-4.34s13.8-2.33,15.49-2.74H57.3A23,23,0,0,0,53.87,129Z"/><path class="cls-1" d="M117.75,129h-15.7c.62-1.19,1.57-3.43,2-4.41C107.75,126,116,129,117.75,129Z"/><path class="cls-2" d="M87.07,33.78c3.08-1.43,7.29-2.16,9.78-1.68a17.58,17.58,0,0,1,8.9,3.93,22,22,0,0,1,5.6,7.69A37.75,37.75,0,0,1,114,51.46c.22-.56,1.22-1.11,2.55-.22s3,3.54,4,7a23.15,23.15,0,0,1,0,13.17c-1.55,4.53-6.2,7.85-8.41,9.17-2.16-3.53-5.31-4.64-7.19-4,.09,1.57,0,2.77.22,4.32a2,2,0,0,0-3,0,2.76,2.76,0,0,0-.77,3.25c-3-3.42-7.79-7.79-10.23-11a53.7,53.7,0,0,1-5.25-8.9,50.77,50.77,0,0,1-3.43-9.74,17.48,17.48,0,0,0-.21,8.37,11.69,11.69,0,0,0,2.09,4.57c-5-.72-11.25-3.47-14.16-6.69-3.4-3.77-4.93-8.42-5.86-13.66a18.13,18.13,0,0,0-8,8.08c-1.44,3-2.32,7.74-2.65,9.51a34.54,34.54,0,0,1-2.77,8c-.66-.66-.61-4.26-.61-6.58a37.79,37.79,0,0,1,1-10,37,37,0,0,1,4.48-9.62c2.17-3.64,8-8.24,11.23-9.9a25.53,25.53,0,0,1,10.1-2.75,14.36,14.36,0,0,1,7.43,1.28,12.55,12.55,0,0,1,4.48,3.82,32.54,32.54,0,0,1,10.28,6,23.62,23.62,0,0,1,4.4,5.23,29.2,29.2,0,0,0-4.09-6.78,21.51,21.51,0,0,0-6.14-5,25.77,25.77,0,0,0-3-1.33A8.67,8.67,0,0,0,87.07,33.78Z"/><path class="cls-2" d="M101.34,86.32c.78,1.05,3.86,5,4.58,6.17,0,4.42-.1,6.4-1.22,9a15.13,15.13,0,0,1-4.56,5.35,30,30,0,0,0,2.32-9A63.51,63.51,0,0,0,101.34,86.32Z"/><path d="M82.19,68.89a1.2,1.2,0,0,0,.28-2.37,23,23,0,0,1-12.56-7.86c-3-3.83-4.65-9.72-4.33-15.37A1.21,1.21,0,0,0,64.45,42a1.19,1.19,0,0,0-1.27,1.13c-.34,6.21,1.51,12.72,4.84,17a25.42,25.42,0,0,0,13.9,8.73A1.24,1.24,0,0,0,82.19,68.89Z"/><path d="M55.79,92.75A8.81,8.81,0,0,0,58,94.1a8.72,8.72,0,0,0,6.9,7.72,11.2,11.2,0,0,0,2,.2c3.32,0,6.37-1.67,9.28-5.06l1.46-.07a.89.89,0,0,0,.83-1,.91.91,0,0,0-1-.84,58.59,58.59,0,0,1-12.32-.74c-3.89-.72-7-1.81-8.22-2.94a.9.9,0,1,0-1.2,1.34Zm18,4.21c-2.72,2.71-5.46,3.69-8.53,3.09a6.86,6.86,0,0,1-5.31-5.18,37.14,37.14,0,0,0,5,1.25A63.64,63.64,0,0,0,73.75,97Z"/><path d="M57.62,73.92a2.31,2.31,0,0,0,2.91-2.36,2.37,2.37,0,0,0-1.43-2.32,2.31,2.31,0,0,0-2.91,2.35A2.37,2.37,0,0,0,57.62,73.92Z"/><path d="M80.63,75.63a2.46,2.46,0,1,0-2,2.1A2.47,2.47,0,0,0,80.63,75.63Z"/><path d="M119,130.67a1.2,1.2,0,0,0,.35-2.35l-2.25-.69A64.14,64.14,0,0,1,107,123.89a1.2,1.2,0,1,0-1,2.17,66,66,0,0,0,10.39,3.87l2.23.68A1.13,1.13,0,0,0,119,130.67Z"/><path d="M92.28,38.43c4.88,1.71,11.78,9.37,13,16.33a1.2,1.2,0,0,0,1.18,1l.21,0a1.2,1.2,0,0,0,1-1.39c-1.42-8-8.88-16.18-14.59-18.18a1.2,1.2,0,0,0-1.53.74A1.22,1.22,0,0,0,92.28,38.43Z"/><path d="M62.88,85.39a.9.9,0,0,0,.77-.43,29.14,29.14,0,0,0,2.18-6.81.9.9,0,0,0-1.78-.31A27.32,27.32,0,0,1,62.11,84a.89.89,0,0,0,.77,1.36Z"/><path d="M4.24,160a128.36,128.36,0,0,1,12.9-21.07c4.28-5.4,8-8.61,11.9-10.41s9.39-2.88,13.26-3.59c1.51-.28,3.25-.55,5.09-.85,2.78-.44,5.82-.92,8.65-1.51a23.06,23.06,0,0,0-3.9,11.22c-.71,10.47,3.18,20.79,10.15,26.92a1.16,1.16,0,0,0,.79.3,1.06,1.06,0,0,0,.31,0c11.66-3.15,18.51-7.78,25.79-14.24,7-6.22,13.4-16.08,15.31-21.64a1.19,1.19,0,0,0-.61-1.47c-4.92-2.39-6.57-5.34-5.68-10.2a20.87,20.87,0,0,1,1.29-3.91c4.85-3.31,7.19-7,7.83-12.29A11.24,11.24,0,0,0,107.4,96c1.43,2.14,4,6.21,4.79,7.67a62.61,62.61,0,0,1,4,10.34s0,.06,0,.1a8.08,8.08,0,0,0-.63,3.22c.1,3.89,1.06,6.43,4,10.47A67.21,67.21,0,0,0,129,138.89c3,2.88,8.45,12.29,11.14,18.46.71,1.64,1.66,3.77,2.72,6.12h2.64c-1.29-2.85-2.42-5.38-3.16-7.08-2.51-5.75-8.16-15.85-11.68-19.23a64.16,64.16,0,0,1-9.18-10.8c-2.64-3.67-3.43-5.72-3.51-9.13,0-1.78.93-3.39,1.79-4.82l.28-.48c.73-1.21,1.55-2.58,2.43-3.89s1.63-2.7,2.36-4c.49-.91,1-1.76,1.44-2.53.34-.55.6-.47.73-.44.74.2,1.86,1.62,1.91,4a10.64,10.64,0,0,1-1.36,4.79l-.28.61q-.23.51-.48,1c-.83,1.7-1.78,3.63-1.29,6.08a1.2,1.2,0,0,0,2.35-.47,5.62,5.62,0,0,1,.62-3.55,13.62,13.62,0,0,1,4.68,7.81.91.91,0,0,0,.89.76h.14a.9.9,0,0,0,.75-1,15.42,15.42,0,0,0-5.67-9.2c.07-.14.14-.28.2-.42l.2-.43a1.19,1.19,0,0,0,1.21.73c.4,0,.77-.09,1.12-.16a4,4,0,0,0,2.72,3.83,2.53,2.53,0,0,0,.8.13c1.87,0,3.62-2,4.44-3.26a13,13,0,0,0,1.19-3.15,25.15,25.15,0,0,1-1.16,11c-.22.79-.39,1.4-.49,1.92-.54,3,1.28,6.45,2.41,8.26a81.29,81.29,0,0,0,8.28,10.21c4.9,5.33,14.62,17.06,17.48,20.53.63.77,1.27,1.56,1.92,2.38h3c-1-1.35-2.09-2.66-3.12-3.91-2.87-3.48-12.62-15.25-17.56-20.62a74.56,74.56,0,0,1-8-9.86c-1.58-2.54-2.36-5-2.08-6.57.08-.39.25-1,.44-1.68.9-3.16,2.56-9,.42-15.28a1.16,1.16,0,0,0-.72-.73s0-.09,0-.12c.21-2.08-.92-3.88-3.18-5.09h0a7.68,7.68,0,0,0-.22-3.2,4.69,4.69,0,0,0-4.16-3.28c-1.11-.1-3.15.19-4.36,3.18-.07.15-.12.28-.17.39a10.6,10.6,0,0,1-.28-2.55V93c0-2.08,0-5.56.07-7.26.06-2,.1-4-.07-7.19-.09-2-.32-6.52-4-6.6h-.07c-2.4,0-3.93,2.59-4.12,7l0,1c-.09,2-.19,4.13-.18,6.33,0,.64,0,1.39,0,2.18,0,2.15,0,4.59,0,5.83l0,.52a8.67,8.67,0,0,1-.35,2.44,6.12,6.12,0,0,1-2.16-1.88c-1.44-1.82-5.36-6.84-6.26-8.14l-.35-.5a10.13,10.13,0,0,0,1-3.87,6.77,6.77,0,0,0-.1-1.55h0a1.25,1.25,0,0,0,.5-.11,18.66,18.66,0,0,0,8.07-6.7,20.34,20.34,0,0,0,3-13.12c-.4-4.08-2.7-11.43-7.17-13.8a1.2,1.2,0,0,0-1.63.5,1.24,1.24,0,0,0-.13.56c-.8-6.18-3.72-12.12-7.78-15.59C101.5,27.68,92.65,26.42,86.25,30a1.2,1.2,0,1,0,1.18,2.09c5.44-3.06,13.35-1.88,18.8,2.79,4.1,3.51,6.9,9.89,7.15,16.25a1.2,1.2,0,0,0,1.2,1.16h0a1.2,1.2,0,0,0,1.15-1.25c0-.71-.09-1.42-.17-2.12a1.19,1.19,0,0,0,.6.79c3.41,1.81,5.54,8.18,5.91,11.91a17.85,17.85,0,0,1-2.6,11.57A16.27,16.27,0,0,1,112.45,79a1,1,0,0,0-.24.15,7.51,7.51,0,0,0-1.74-2.25,6.4,6.4,0,0,0-4.93-1.52,51.47,51.47,0,0,1-.29-6.65,1.2,1.2,0,1,0-2.38-.27c-.17,1.53.08,5,.58,10.59a3.39,3.39,0,0,0-2.22.92,3.91,3.91,0,0,0-1.12,1.67,45.12,45.12,0,0,0-4.49-5.3c-1.37-1.46-2.78-3-4-4.52A42.92,42.92,0,0,1,84.11,53.6a1.19,1.19,0,0,0-1.38-1,1.21,1.21,0,0,0-1,1.38,45.66,45.66,0,0,0,8,19.35C91,75,92.46,76.52,93.87,78a32.11,32.11,0,0,1,4.91,6.08c1.74,3.35,2.44,11.28,1.8,15.43a32.16,32.16,0,0,1-2.47,7.09A31.06,31.06,0,0,0,95.84,113c-1,5.63.83,9.46,6,12.29-2.17,5.4-8,14-14.28,19.66C80.7,151,74.22,155.44,63.4,158.46c-6.12-5.7-9.51-15-8.87-24.53.31-4.68,2.6-9.77,5.47-12.27A11,11,0,0,1,58.49,125a.9.9,0,0,0,.74,1.41.87.87,0,0,0,.74-.39c2.48-3.59,2.66-8.73,2.7-12.37a13.36,13.36,0,0,0,3.82,1,21.81,21.81,0,0,0,2.72.17c4.55,0,7.91-1.54,11.17-3l.73-.34a27.07,27.07,0,0,0,9.61-6.87,1.2,1.2,0,1,0-1.85-1.52,25.34,25.34,0,0,1-8.75,6.21l-.74.34c-3.74,1.72-7.28,3.34-12.58,2.66-5.47-.69-7.11-4-8.84-8.49a150.49,150.49,0,0,1-4.94-15,29.05,29.05,0,0,1-.6-13.62,37.61,37.61,0,0,1,1.35-5.82,22.55,22.55,0,0,0,.93-3.93c.12-1,.28-2,.48-2.94a.89.89,0,0,0,.6.24,1,1,0,0,0,.38-.08,14.34,14.34,0,0,1,6.49-.79A.9.9,0,1,0,63,60.13a15.84,15.84,0,0,0-7.46.86,27,27,0,0,1,1.26-3.71c1.2-2.88,3.41-6.4,5.66-7.79a1.2,1.2,0,0,0-1.27-2c-2.87,1.78-5.3,5.77-6.61,8.9a32.29,32.29,0,0,0-2.26,8.82,21.91,21.91,0,0,1-.85,3.53c-.14.48-.29,1-.44,1.52,0-1.4,0-2.66,0-3.9,0-2,0-4,0-6.09a28,28,0,0,1,4.4-13.56,31.37,31.37,0,0,1,12.7-11.81c5.18-2.52,11.14-3.55,14.5-2.5a1.2,1.2,0,1,0,.72-2.29c-4.57-1.43-11.46.29-16.27,2.63a33.21,33.21,0,0,0-13.7,12.74,30.26,30.26,0,0,0-4.75,14.71c-.08,2.15-.07,4.11,0,6.18s0,4,0,6.42A1.19,1.19,0,0,0,49.77,74h0a1,1,0,0,0,.39-.07c0,.31-.1.63-.15,1a31.46,31.46,0,0,0,.67,14.59,150.66,150.66,0,0,0,5,15.24c1.23,3.22,2.55,6.1,5.16,8v.43a42.48,42.48,0,0,1-.45,6.65l0,0a1.59,1.59,0,0,0-.13-.13l-.08,0-.11-.08-.1,0-.12,0-.09,0a.31.31,0,0,0-.13,0H59.4l-.14,0h-.08A117.79,117.79,0,0,1,47,121.69c-1.85.3-3.61.57-5.15.86-4.33.79-9.81,1.94-13.82,3.77-4.3,2-8.25,5.39-12.78,11.09A131.22,131.22,0,0,0,2.08,158.94c-.74,1.54-1.42,3-2.08,4.53H2.62C3.12,162.36,3.65,161.21,4.24,160Zm133.34-53.45c.07-.32.16-.67.25-1,.27-1.12.59-2.47.79-3.9a3.09,3.09,0,0,1,1.6,2.94c-.19,1.91-1,5.63-1.79,6.84-.85,1.37-2.32,2.65-3.15,2.38a2.35,2.35,0,0,1-1.48-2.61A5.86,5.86,0,0,0,137.58,106.53ZM108.9,78.76a5.14,5.14,0,0,1,1.75,4,7.93,7.93,0,0,1-.29,1.72,35.19,35.19,0,0,0-2.65-3.27,8.21,8.21,0,0,0-1.85-1.45,1.06,1.06,0,0,0,0-.36c0-.48-.09-1-.14-1.57A4,4,0,0,1,108.9,78.76Zm-6.06,3c1.08-1,2.94.87,3.15,1.09a61.47,61.47,0,0,1,4.42,5.75c1.13,1.63,6.29,8.19,6.34,8.26.68.86,3,3.58,5,2.61,1.53-.73,1.64-2.66,1.74-4.53l0-.5c.08-1.32.06-3.81,0-6,0-.78,0-1.53,0-2.16,0-2.14.09-4.21.18-6.21l0-1c.12-2.63.88-4.67,1.73-4.67h0c.48,0,1.48,0,1.7,4.32.16,3.16.12,5,.06,7,0,1.73-.06,5.23-.07,7.32v1.11c0,1.36.16,4.59,1.84,5.18,2.08.73,2.86-1.19,3.23-2.11.73-1.79,1.61-1.72,1.94-1.69a2.33,2.33,0,0,1,2.08,1.65,7.12,7.12,0,0,1,0,2.87l0,.42a32.06,32.06,0,0,1-.85,4.47c-.09.39-.18.75-.25,1.08-.35,1.53-1,3-4.59,3.39a1.43,1.43,0,0,0-.28.07,10.71,10.71,0,0,0,.94-4.16,8.66,8.66,0,0,0,1.63-4.25,1.21,1.21,0,1,0-2.38-.38c0,.23-.07.44-.11.64a4.64,4.64,0,0,0-2.81-2.56,3,3,0,0,0-3.4,1.49c-.51.82-1,1.7-1.5,2.63-.71,1.27-1.43,2.59-2.26,3.83s-1.75,2.76-2.48,4l-.22.35a58.22,58.22,0,0,0-3.48-8.56c-1-1.77-4-6.54-5.23-8.35-.49-.73-1.32-1.9-2.21-3.16-1.31-1.86-2.79-4-3.46-5C102.14,84,102,82.6,102.84,81.78ZM103,99.89a38.17,38.17,0,0,0-.26-10.68c.68,1,1.46,2.09,2.2,3.13a.43.43,0,0,1,0,0,29.26,29.26,0,0,1,.06,4.52,13.15,13.15,0,0,1-3.39,7.72A23.22,23.22,0,0,0,103,99.89Z"/><path d="M33.5,148.65a1.2,1.2,0,1,0-2.15-1.07c-2.23,4.45-3.67,8-5.34,12.07-.49,1.21-1,2.48-1.57,3.82H27c.42-1,.81-2,1.2-2.91C29.89,156.51,31.31,153,33.5,148.65Z"/><path d="M119.22,149.38a1.2,1.2,0,1,0-2.39-.14,79.51,79.51,0,0,0,.79,14.23h2.43A78.77,78.77,0,0,1,119.22,149.38Z"/><path d="M31.39,27.73a1.23,1.23,0,0,1-.77-.26,84.6,84.6,0,0,0-9.39-6.42A1.25,1.25,0,0,1,22.5,18.9a88.51,88.51,0,0,1,9.66,6.6,1.25,1.25,0,0,1-.77,2.23Z"/><path d="M43.78,16a1.25,1.25,0,0,1-1.05-.57L35.31,3.93a1.25,1.25,0,1,1,2.1-1.35l7.42,11.5a1.25,1.25,0,0,1-.37,1.73A1.22,1.22,0,0,1,43.78,16Z"/><path d="M60.66,9.79a1.25,1.25,0,0,1-1.23-1L58,1.5a1.25,1.25,0,0,1,1-1.48,1.26,1.26,0,0,1,1.47,1l1.47,7.29a1.24,1.24,0,0,1-1,1.47Z"/></g></g></svg>