<svg xmlns="http://www.w3.org/2000/svg" viewBox="0 0 138.19 155.47"><defs><style>.cls-1{fill:#dee44c;}.cls-2{fill:#231815;}</style></defs><g id="Layer_2" data-name="Layer 2"><g id="People_Avatar" data-name="People Avatar"><path class="cls-1" d="M95.92,154.19H1.69a.75.75,0,1,1,0-1.5H95.92a.75.75,0,1,1,0,1.5Z"/><path class="cls-1" d="M98.24,149.38H2.47a.75.75,0,1,1,0-1.5H98.24a.75.75,0,1,1,0,1.5Z"/><path class="cls-1" d="M99.57,144.57H3.13a.75.75,0,1,1,0-1.5H99.57a.75.75,0,0,1,0,1.5Z"/><path class="cls-1" d="M100.46,139.76H4.12a.75.75,0,0,1,0-1.5h96.34a.75.75,0,0,1,0,1.5Z"/><path class="cls-1" d="M101.34,135H5a.75.75,0,1,1,0-1.5h96.33a.75.75,0,0,1,0,1.5Z"/><path class="cls-1" d="M101.89,130.14H6.56a.75.75,0,0,1,0-1.5h95.33a.75.75,0,0,1,0,1.5Z"/><path class="cls-1" d="M101.56,125.33H8.33a.75.75,0,1,1,0-1.5h93.23a.75.75,0,0,1,0,1.5Z"/><path class="cls-1" d="M100.46,120.52H10.21a.75.75,0,1,1,0-1.5h90.25a.75.75,0,0,1,0,1.5Z"/><path class="cls-1" d="M99.9,115.71H66.17a.75.75,0,0,1,0-1.5H99.9a.75.75,0,0,1,0,1.5Z"/><path class="cls-1" d="M27.24,115.71H13a.75.75,0,1,1,0-1.5H27.24a.75.75,0,0,1,0,1.5Z"/><path class="cls-1" d="M93.71,110.9H78.56a.75.75,0,0,1,0-1.5H93.71a.75.75,0,1,1,0,1.5Z"/><path class="cls-1" d="M25.14,110.9H17a.75.75,0,0,1,0-1.5h8.19a.75.75,0,1,1,0,1.5Z"/><path d="M69.73,23c3.28-.22,9.58.43,15,7.19C90,36.69,91.4,41.79,92,47.91c.68,7.65.1,12.88-2,17.5a36.41,36.41,0,0,1-2.72,4.82c-1.54,2.43-3,4.71-3.43,7.61-.26,1.68-.37,3.24-.48,4.75a28,28,0,0,1-1.12,7.14c-1.47,4.41-4.28,6.89-8.6,7.55a1.2,1.2,0,0,0,.18,2.39l.19,0c5.22-.8,8.75-3.89,10.51-9.17a30.45,30.45,0,0,0,1.24-7.72c.1-1.46.21-3,.45-4.55.37-2.4,1.63-4.39,3.09-6.69a38.85,38.85,0,0,0,2.89-5.14c2.22-5,2.86-10.6,2.14-18.69-.59-6.56-2.09-12-7.73-19.06-4.46-5.55-10.67-8.5-17-8.07A1.2,1.2,0,1,0,69.73,23Z"/><path d="M74.92,36.59a1.19,1.19,0,0,0-1.66.31c-4,5.87-15.4,11.66-23.42,11.92a1.2,1.2,0,0,0,0,2.4h0A24.78,24.78,0,0,0,54,50.73a.81.81,0,0,0,.41.18,11.53,11.53,0,0,1,3.12.92.91.91,0,0,0,1.21-.42.91.91,0,0,0-.42-1.2c-.27-.13-.56-.25-.87-.37C64.6,47.62,72,43,75.24,38.26A1.2,1.2,0,0,0,74.92,36.59Z"/><path d="M35.82,99.79a1.22,1.22,0,0,0,.76-.27,1.2,1.2,0,0,0,.17-1.69c-6.07-7.52-8.35-15.26-7.15-24.37.69-5.28,3.16-10.22,5.15-14.19l.12-.26c1.56-3.11,2.35-7.14,3.18-11.4.3-1.53.61-3.11,1-4.71,1.22-5.49,6.43-12.33,10.77-15.76,3.41-2.7,10.63-6.42,15.46-4.91a1.21,1.21,0,0,0,1.5-.79,1.19,1.19,0,0,0-.79-1.5c-5.75-1.8-13.71,2.19-17.66,5.32C43.7,28.9,38.06,36.14,36.67,42.38c-.36,1.62-.67,3.23-1,4.77-.8,4.1-1.55,8-3,10.79l-.13.25c-2.07,4.13-4.64,9.28-5.38,15-1.29,9.8,1.15,18.13,7.67,26.19A1.16,1.16,0,0,0,35.82,99.79Z"/><path d="M108.85,127.66a.9.9,0,0,0,.77-.43,23.58,23.58,0,0,0,3.48-10.85.9.9,0,0,0-.88-.91h0a.9.9,0,0,0-.9.89,21.56,21.56,0,0,1-3.21,9.93.89.89,0,0,0,.76,1.37Z"/><path d="M68.3,99c2.08,3.11,6.44,5.18,10.66,7.17l.53.25a1.19,1.19,0,0,0,.51.12,1.22,1.22,0,0,0,1.09-.69,1.21,1.21,0,0,0-.57-1.6L80,104c-3.93-1.85-8-3.77-9.69-6.33A6.58,6.58,0,0,1,69.71,91a.42.42,0,0,1,0-.1A19.81,19.81,0,0,0,75,86.9a29.93,29.93,0,0,0,5.77-9.77A78.08,78.08,0,0,0,83.89,65.8c.32.33.66.66,1,1a1.18,1.18,0,0,0,.82.32,1.22,1.22,0,0,0,.88-.38,1.2,1.2,0,0,0-.07-1.7A37.38,37.38,0,0,1,77.4,51c-1.62-4.53-1.62-5.73-1.62-8.36a1.2,1.2,0,0,0-2.4,0c0,2.74,0,4.25,1.76,9.16a41.27,41.27,0,0,0,6.72,11.74l0,.16a76.09,76.09,0,0,1-3.29,12.53,28,28,0,0,1-5.38,9.12c-2,2.39-7.57,5.32-11.38,6s-7.16,1-10.44,0c-3.49-1-5.18-2.08-7.25-4.44A29,29,0,0,1,39,77a29.56,29.56,0,0,1-.37-13.18,27,27,0,0,1,4.9-10.34c2.22-2.95,5.89-6.19,10.55-10.29l3.79-3.36A1.2,1.2,0,0,0,56.26,38c-1.32,1.18-2.58,2.29-3.78,3.35C47.72,45.57,44,48.88,41.6,52a29.26,29.26,0,0,0-5.29,11.15c-1.11,4.08-.71,11,.39,14.53.82,2.59,2.63,7.43,5.57,10.8.25.28.49.54.74.8C42,93.69,41,97,38.92,98.93a22.35,22.35,0,0,1-9.79,5.59,1.2,1.2,0,0,0-.85,1.47,1.19,1.19,0,0,0,1.16.89,1,1,0,0,0,.3,0,24.59,24.59,0,0,0,10.82-6.15C42.92,98.47,44,95.29,45,91.1a17.12,17.12,0,0,0,5.61,2.57,18.21,18.21,0,0,0,5.27.73,34.9,34.9,0,0,0,6.28-.68,23,23,0,0,0,4.58-1.43A9.13,9.13,0,0,0,68.3,99Z"/><circle cx="50.87" cy="57.91" r="2.24"/><path d="M67.41,63.22A2.24,2.24,0,1,0,69.65,61,2.24,2.24,0,0,0,67.41,63.22Z"/><path d="M46,74.78A.91.91,0,0,0,46.26,76c.46.28,1,.56,1.5.83a7.9,7.9,0,0,0,6.41,6.28,13.27,13.27,0,0,0,3,.38c2.26,0,3.91-.83,6.07-2.34l.11-.1,1.46.17h.1a.9.9,0,0,0,.1-1.79,60.5,60.5,0,0,1-9.81-1.77,30.93,30.93,0,0,1-8-3.2A.9.9,0,0,0,46,74.78ZM60.65,80.7c-1.76,1-3.28,1.32-6.08.67A6.21,6.21,0,0,1,50,77.86a46.33,46.33,0,0,0,4.71,1.57A52.29,52.29,0,0,0,60.65,80.7Z"/><path d="M55.82,70.83a.91.91,0,0,0,.75-.4,33.94,33.94,0,0,0,2.71-7.18.9.9,0,0,0-.69-1.07.91.91,0,0,0-1.07.69,33.35,33.35,0,0,1-2.45,6.56.9.9,0,0,0,.75,1.4Z"/><path d="M75.37,59.72a.9.9,0,0,0,1.44-1.08,14.9,14.9,0,0,0-8-4.85.9.9,0,1,0-.35,1.76A13.11,13.11,0,0,1,75.37,59.72Z"/><path d="M31.68,73.58a.9.9,0,0,0-.95.84C30.52,77.72,33,88.21,38,93.13a.85.85,0,0,0,.63.26.88.88,0,0,0,.64-.26.9.9,0,0,0,0-1.27c-4.48-4.49-6.89-14.36-6.7-17.33A.9.9,0,0,0,31.68,73.58Z"/><path d="M89.56,57.16h.09a.9.9,0,0,0,.8-1c-1-9.44-4.39-17.53-7.35-21.36a.9.9,0,1,0-1.42,1.1c2.8,3.63,6,11.36,7,20.44A.9.9,0,0,0,89.56,57.16Z"/><path d="M98,153.14l.16-.32c2.15-4.48,3.19-10,4.1-14.94.14-.75.28-1.49.42-2.2a38,38,0,0,0,.46-9.94c-.17-1.46-.54-3.42-.9-5.31-.32-1.7-.62-3.31-.72-4.23-.21-2.1.18-3.9,1-4.37a44.72,44.72,0,0,0,4.11-2.84,3.93,3.93,0,0,1,2.82-1.09l.11,0c1.3.29,4.38,1.2,5.5,1.58a1,1,0,0,1,.58.54,1.39,1.39,0,0,1,.05,1,3.07,3.07,0,0,1-2.6,2.19c-2.62.34-4.54,0-5.73-.91a.89.89,0,0,0-1.26.14.9.9,0,0,0,.14,1.27,6.22,6.22,0,0,0,1.8,1,3.34,3.34,0,0,1-1.59,1.35.9.9,0,0,0,.28,1.76.86.86,0,0,0,.27-.05,5.57,5.57,0,0,0,2.76-2.36l.23-.29c.36,0,.74.06,1.13.06a17.4,17.4,0,0,0,2.2-.16,4.72,4.72,0,0,0,2.88-1.42,3,3,0,0,0,.44.33l-.4.36-.66.6c-.72.62-2.4,2.08-1.24,3.88a3,3,0,0,0,2.6,1.25,5,5,0,0,0,1.7-.31,13.6,13.6,0,0,0,3.84-2.22,11.06,11.06,0,0,0,3.23-1.09.9.9,0,1,0-.83-1.59,10,10,0,0,1-2.94,1,.93.93,0,0,0-.39.18,12.12,12.12,0,0,1-3.53,2.08c-.93.33-1.86.24-2.17-.23-.13-.21-.31-.48.91-1.54l.69-.63a29,29,0,0,1,3.06-2.54,19.19,19.19,0,0,1,4.4-2.19.91.91,0,0,1,.46.09,1.21,1.21,0,0,0,.42.58,2.46,2.46,0,0,1,.84,1,14.78,14.78,0,0,1,.65,4.38,5.91,5.91,0,0,1-1.59,4.21c-1.29,1.42-2.44,3-3.77,4.72l-.78,1a26.16,26.16,0,0,0-3.6,6.17c-.94,2.44-1.88,5.44-2.66,8-.41,1.35-1.75,7.52-3.21,14.31h2.46c1.37-6.37,2.67-12.39,3-13.62.78-2.57,1.69-5.51,2.61-7.88a22.84,22.84,0,0,1,3.28-5.58l.78-1c1.29-1.72,2.41-3.21,3.63-4.55a8.27,8.27,0,0,0,2.21-5.85,17.38,17.38,0,0,0-.79-5.16,4.13,4.13,0,0,0-.8-1.3l.38-.84c.52-1.15,1.11-2.45,1.52-3.13a4.88,4.88,0,0,0,.39-4.91,4.71,4.71,0,0,0-.74-1.06,31.15,31.15,0,0,1,2.6-2.92l.61-.63c.94-1,1.55-1.61,2.21-2.27.4-.39.81-.81,1.33-1.34a6,6,0,0,0,1.83-4,3.15,3.15,0,0,0-1.07-2.29c-.94-.84-3-1.78-6.6,1.3a44,44,0,0,0-4.44,4.49c-.87,1-2.63,2.91-4.19,4.59l-2.56,2.78c-1.13,1.27-1.47,1.13-1.59,1.11a5.51,5.51,0,0,1,.18-1.66l.08-.41c.35-1.68.82-4,1.14-5.61.09-.47.19-1,.29-1.56.28-1.54.59-3.29,1.07-5.25a5.23,5.23,0,0,0-.32-4.16,3,3,0,0,0-2.1-1.29c-2-.32-3.51.88-4.46,3.57-.59,1.68-1.25,4-1.87,6.62-.33,1.39-.66,3.44-1,5.41-.25,1.6-.49,3.12-.69,4a28.75,28.75,0,0,1-1.22,3.82c-.09.24-.18.48-.26.72a6.88,6.88,0,0,0-3.47,1.56,43.43,43.43,0,0,1-3.9,2.69c-2.35,1.43-2.24,5.14-2.08,6.66.1,1,.41,2.68.74,4.44s.72,3.76.88,5.14a35,35,0,0,1-.44,9.2q-.21,1.08-.42,2.22C99,142.2,98,147.59,96,151.78l-.15.32c-.54,1.12-1.08,2.25-1.63,3.37h2.66C97.26,154.69,97.64,153.92,98,153.14Zm13.1-47.49a31.56,31.56,0,0,0,1.31-4.12c.21-.93.46-2.49.72-4.13.29-1.84.62-3.93.93-5.23a65.34,65.34,0,0,1,1.81-6.38c.76-2.17,1.47-2.06,1.81-2s.44.19.48.25.36.71,0,2.26c-.5,2-.83,3.9-1.11,5.4-.09.55-.19,1.06-.28,1.53-.31,1.62-.78,3.91-1.13,5.58l-.08.41c-.29,1.4-.73,3.52,1.26,4.34,1.79.73,3.24-.53,4.29-1.71l2.53-2.75c1.57-1.7,3.34-3.62,4.24-4.64a41.54,41.54,0,0,1,4.2-4.26c1.21-1,2.74-1.94,3.43-1.32a.74.74,0,0,1,.28.58,3.6,3.6,0,0,1-1.16,2.25L133.32,93c-.66.66-1.29,1.29-2.26,2.31l-.58.6a27.85,27.85,0,0,0-3.26,3.81l-.06.11a4.6,4.6,0,0,0-3.64.56,25.6,25.6,0,0,0-3.72,3.48,45.94,45.94,0,0,0-3.43,4.34,2.71,2.71,0,0,0-.76-.43c-1-.32-3.22-1-4.78-1.41C110.92,106.16,111,105.9,111.11,105.65Z"/><path d="M4.86,138.84a78.19,78.19,0,0,1,5.38-17.11,36.71,36.71,0,0,1,5.58-9.53,40.74,40.74,0,0,1,9.08-6.36v0a11.08,11.08,0,0,0,.89,8.39c2.2,3.77,6.88,5.82,14.33,6.25.84,0,1.68.07,2.53.07A70.54,70.54,0,0,0,63.15,117c5.7-1.83,18.57-6.67,22.54-10l.53.27a91.19,91.19,0,0,1,10.69,6.17,1.17,1.17,0,0,0,.71.24,1.2,1.2,0,0,0,.72-2.16,91.16,91.16,0,0,0-11-6.37L86,104.49l-.09,0-.12,0a.61.61,0,0,0-.13,0l-.1,0h-.23l-.12,0-.11,0-.1,0-.11,0-.1.07-.1.06a.47.47,0,0,0-.1.1l-.06.06c-2.06,2.43-14.29,7.44-22.15,10-4.58,1.47-13.54,3.86-22.16,3.36-6.58-.39-10.63-2-12.39-5.07a8.54,8.54,0,0,1-.68-6.48,4.38,4.38,0,0,1,2.08-2.78l.06,0,.11-.07.09-.07.08-.08.08-.09.06-.1.06-.1s0-.07.05-.1l0-.11,0-.11a.49.49,0,0,0,0-.12s0-.07,0-.11,0-.08,0-.12,0-.08,0-.12l0-.12,0-.07s0,0,0,0a.06.06,0,0,0,0,0,.43.43,0,0,1,0-.07.61.61,0,0,0-.07-.1l-.07-.09a.6.6,0,0,0-.08-.08.39.39,0,0,0-.1-.08.16.16,0,0,0-.08-.06l-.11-.07-.09,0-.13,0-.1,0-.12,0H28.6l-.11,0-.12,0-.08,0c-5.5,2.2-12.06,6.58-14.26,9A39.6,39.6,0,0,0,8,120.8a80.09,80.09,0,0,0-5.51,17.53A124.87,124.87,0,0,0,0,155.47H2.41A119.54,119.54,0,0,1,4.86,138.84Z"/><path d="M8.4,150.13A108,108,0,0,1,12,139.4c.83-2.2,1.6-4.27,2.22-6.22a.9.9,0,1,0-1.71-.54c-.61,1.9-1.38,4-2.19,6.12a109,109,0,0,0-3.66,10.91,21.87,21.87,0,0,0-.51,5.8H8A20.35,20.35,0,0,1,8.4,150.13Z"/><path d="M82.77,131.38a1.2,1.2,0,1,0-2.34-.53c-.88,3.86-1.79,15.36-2.14,24.62h2.39C81,146.4,81.91,135.16,82.77,131.38Z"/><path class="cls-2" d="M114,24.07a1,1,0,0,1-.81-.41c-1.65-2.27-3.5-4.58-6.25-5.76s-7.19.84-9.9,2a1,1,0,0,1-1.27-.41,1,1,0,0,1,.27-1.31c3.64-2.69,5.79-5.51,6-7.94h0c.23-2.13-1.2-5.16-2.46-7.83l-.47-1A1,1,0,0,1,100.86.34c2.32,2.64,4.33,4.92,6.49,6.19a8.76,8.76,0,0,0,2.59,1.15,9.15,9.15,0,0,0,3.22-.09,50.88,50.88,0,0,0,10-2.85,1,1,0,0,1,1.25.49A1,1,0,0,1,124,6.52c-3.56,2.2-6,4.14-8.05,7.49a10.31,10.31,0,0,0-1.33,3.69,15.27,15.27,0,0,0,.23,4.22l.14,1a1,1,0,0,1-.62,1.06A1.21,1.21,0,0,1,114,24.07Zm-9-8.51a6.83,6.83,0,0,1,2.68.5,14,14,0,0,1,4.86,3.62,10.23,10.23,0,0,1,.06-2.29,12.14,12.14,0,0,1,1.6-4.42,19.76,19.76,0,0,1,3.54-4.35,39.6,39.6,0,0,1-4.35,1,10.79,10.79,0,0,1-3.94.07,10.8,10.8,0,0,1-3.19-1.38,17.72,17.72,0,0,1-3-2.3,10.71,10.71,0,0,1,.75,4.52h0a10.85,10.85,0,0,1-2.87,5.71A13.8,13.8,0,0,1,105.08,15.56Z"/></g></g></svg>